<svg width="32" height="20" viewBox="0 0 32 20" fill="none" xmlns="http://www.w3.org/2000/svg">
<g id="Amex">
<rect id="Rectangle" width="32" height="20" rx="4" fill="#006FCE"/>
<path id="Path" d="M31.501 11.5001L29.5622 13.0572L31.501 14.6215V15.7429L28.1504 13.0501L31.501 10.3929V11.5001Z" fill="white"/>
<g id="Group 41">
<path id="Shape" fill-rule="evenodd" clip-rule="evenodd" d="M27.6291 7.62113L26.1082 4.28541H23.1577V9.61399H25.0245V5.86398L26.7821 9.61399H28.4213L30.1789 5.85684V9.61399H32.0003V10.3568H29.587L27.5926 12.0711L25.6074 10.3568H23.1577L26.3814 13.0354L23.1577 15.714H25.5436L27.5562 13.9854L29.5506 15.714H32.0003V16.514H29.0588L27.538 15.1997L26.0172 16.514H16.3095V10.3854H13.1768L17.0653 3.48541H20.8082L22.1468 5.8497V3.48541H26.7912L27.5926 5.27113L28.4031 3.48541H32.0003V4.28541H29.1317L27.6291 7.62113ZM23.1416 9.61399H21.0631L20.4894 8.57113H17.3476L16.783 9.64256H14.734L17.7483 4.28541H20.1434L23.1416 9.61399ZM23.1849 10.4139H17.3749L17.3475 15.7139H23.1576V14.5354H19.2144V13.6997H23.0665V12.4925H19.2144V11.6568H23.1849V10.4139Z" fill="white"/>
<path id="Path_2" d="M28.7578 13.0501L31.9998 15.743H29.5501L27.5558 14.0144L25.5432 15.743H23.1572L26.381 13.0644L23.1572 10.393H25.6069L27.5922 12.1001L29.5865 10.393H31.9998L28.7578 13.0501Z" fill="#006FCE"/>
<path id="Path_3" d="M19.2145 11.6287V12.4644H23.0666V13.6716H19.2145V14.5073H23.1577V15.743H17.3477V10.393H23.1577V11.6287H19.2145Z" fill="#006FCE"/>
<path id="Path_4" d="M31.9998 4.25696V9.6141H30.1603V5.85696L28.4027 9.6141H26.7635L25.0059 5.8641V9.6141H23.1572V4.25696H26.0805L27.6013 7.59267L29.1312 4.25696H31.9998Z" fill="#006FCE"/>
<path id="Shape_2" fill-rule="evenodd" clip-rule="evenodd" d="M17.7487 4.28555H20.1437L23.158 9.6427H21.0635L20.4898 8.57127H17.348L16.7834 9.6427H14.7344L17.7487 4.28555ZM18.9053 5.61399L17.9946 7.36399H19.816L18.9053 5.61399Z" fill="#006FCE"/>
<path id="Path_5" d="M19.8428 7.33554H17.9941L18.9139 5.58554L19.8428 7.33554Z" fill="white"/>
</g>
</g>
</svg>
