<svg width="32" height="32" viewBox="0 0 32 32" fill="none" xmlns="http://www.w3.org/2000/svg">
<g id="Discover">
<g id="Group">
<rect id="Rectangle" x="0.545898" y="6.13571" width="30.9091" height="18.9286" rx="5.25" fill="white"/>
<path id="Shape" fill-rule="evenodd" clip-rule="evenodd" d="M4.36364 5.60001H27.6364C30.0463 5.60001 32 7.51879 32 9.88572V21.3143C32 23.6812 30.0463 25.6 27.6364 25.6H4.36364C1.95367 25.6 0 23.6812 0 21.3143V9.88572C0 7.51879 1.95367 5.60001 4.36364 5.60001ZM30.909 9.88572C30.905 8.11215 29.4421 6.67536 27.6363 6.67143H4.36357C2.55775 6.67536 1.09484 8.11215 1.09084 9.88572V21.3143C1.09484 23.0879 2.55775 24.5246 4.36357 24.5286H27.6363C29.4421 24.5246 30.905 23.0879 30.909 21.3143V9.88572Z" fill="#F47922"/>
<path id="Path" d="M31.5638 21.3143C31.5638 23.6812 29.6102 25.6 27.2002 25.6H19.2002V24.5286C25.0184 24.5286 29.382 20.7286 29.382 15.6C29.382 10.4714 25.0184 6.67143 19.2002 6.67143V5.60001H27.2002C29.6102 5.60001 31.5638 7.51879 31.5638 9.88572V21.3143Z" fill="#F47922"/>
<g id="Group 32">
<path id="Shape_2" fill-rule="evenodd" clip-rule="evenodd" d="M2.40039 13.7448H3.58048C4.14547 13.7107 4.69928 13.9126 5.10968 14.3024C5.52008 14.6922 5.75023 15.2349 5.74519 15.8009C5.74386 16.407 5.47975 16.9828 5.02121 17.3792C4.61114 17.7056 4.09687 17.8728 3.57324 17.8498H2.40039V13.7448ZM3.42118 17.1548C3.81421 17.1937 4.20681 17.0767 4.51439 16.829C4.80937 16.5578 4.97298 16.1725 4.96326 15.772C4.95927 15.391 4.79659 15.0289 4.51439 14.7729C4.21106 14.5167 3.81583 14.3963 3.42118 14.4398H3.20399V17.1548H3.42118Z" fill="#231F20"/>
<rect id="Rectangle_2" x="6.15039" y="13.7448" width="0.803621" height="4.10498" fill="#231F20"/>
<path id="Path_2" d="M8.91671 15.3231C8.43888 15.1421 8.30132 15.0263 8.30132 14.8018C8.30132 14.5774 8.54024 14.324 8.91671 14.324C9.17083 14.3318 9.40775 14.4542 9.56105 14.657L9.98096 14.1141C9.64889 13.8166 9.21769 13.654 8.77191 13.6579C8.43726 13.6296 8.10603 13.7426 7.85846 13.9696C7.61089 14.1965 7.46957 14.5167 7.46874 14.8525C7.46874 15.4172 7.72214 15.7068 8.47508 15.9819C8.66579 16.0405 8.85013 16.1181 9.02531 16.2136C9.17899 16.3006 9.27327 16.4642 9.27146 16.6407C9.26783 16.8002 9.19938 16.9513 9.0819 17.0593C8.96442 17.1672 8.80805 17.2226 8.64884 17.2127C8.27538 17.22 7.93242 17.0074 7.77282 16.6697L7.25879 17.1693C7.5613 17.6759 8.11716 17.9761 8.70675 17.9512C9.07802 17.9757 9.44248 17.8429 9.71103 17.5854C9.97958 17.3279 10.1275 16.9693 10.1185 16.5973C10.0896 15.9457 9.82169 15.6561 8.91671 15.3231Z" fill="#231F20"/>
<path id="Path_3" d="M10.3647 15.772C10.3528 16.3516 10.5777 16.911 10.9877 17.3209C11.3976 17.7309 11.957 17.9559 12.5367 17.9439C12.8836 17.9418 13.2254 17.8601 13.5358 17.705V16.7638C13.2887 17.0589 12.9215 17.2266 12.5367 17.2199C12.155 17.2313 11.7865 17.0801 11.5227 16.8039C11.259 16.5278 11.1249 16.1527 11.1539 15.772C11.1321 15.3992 11.2636 15.0338 11.5179 14.7603C11.7721 14.4869 12.1271 14.3293 12.5005 14.324C12.8845 14.328 13.2484 14.4968 13.4996 14.7873V13.8462C13.1999 13.7019 12.8689 13.6347 12.5367 13.6507C11.3566 13.6504 10.3922 14.5923 10.3647 15.772Z" fill="#231F20"/>
<path id="Path_4" d="M19.8628 16.5032L18.7696 13.7448H17.8936L19.6311 17.9584H20.0655L21.8393 13.7448H20.9705L19.8628 16.5032Z" fill="#231F20"/>
<path id="Path_5" d="M22.2012 17.8498H24.4672V17.1548H22.9976V16.0471H24.4166V15.3521H22.9976V14.4398H24.4672V13.7448H22.2012V17.8498Z" fill="#231F20"/>
<path id="Shape_3" fill-rule="evenodd" clip-rule="evenodd" d="M26.1903 13.7448C27.1097 13.7448 27.6382 14.1864 27.6382 14.9539C27.6822 15.5277 27.2739 16.0373 26.7043 16.1195L28.0002 17.8498H27.0156L25.9079 16.1991H25.7993V17.8498H25.0029V13.7448H26.1903ZM25.7993 15.6344H26.031C26.545 15.6344 26.8201 15.3955 26.8201 14.9973C26.8201 14.5991 26.545 14.3892 26.0454 14.3892H25.7993V15.6344Z" fill="#231F20"/>
<path id="Path_6" d="M18.1183 15.772C18.1183 16.9715 17.1459 17.9439 15.9464 17.9439C14.7468 17.9439 13.7744 16.9715 13.7744 15.772C13.7744 14.5724 14.7468 13.6 15.9464 13.6C17.1459 13.6 18.1183 14.5724 18.1183 15.772Z" fill="#F47922"/>
</g>
</g>
</g>
</svg>
