<svg width="72" height="28" viewBox="0 0 72 28" fill="none" xmlns="http://www.w3.org/2000/svg">
<g id="Page-1">
<g id="Group">
<g id="Group_2">
<path id="Vector" d="M49.1556 15.7677L49.8755 15.9836C49.8275 16.1876 49.7555 16.3556 49.6475 16.4875C49.5395 16.6195 49.4195 16.7275 49.2636 16.7875C49.1076 16.8595 48.9156 16.8955 48.6757 16.8955C48.3877 16.8955 48.1598 16.8595 47.9678 16.7755C47.7878 16.6915 47.6318 16.5475 47.4999 16.3316C47.3679 16.1276 47.2959 15.8516 47.2959 15.5277C47.2959 15.0958 47.4159 14.7598 47.6438 14.5199C47.8718 14.2799 48.2077 14.1719 48.6277 14.1719C48.9636 14.1719 49.2156 14.2439 49.4075 14.3759C49.5995 14.5079 49.7435 14.7118 49.8275 14.9998L49.1076 15.1558C49.0836 15.0718 49.0596 15.0118 49.0236 14.9758C48.9756 14.9158 48.9276 14.8678 48.8556 14.8318C48.7837 14.7958 48.7117 14.7838 48.6397 14.7838C48.4597 14.7838 48.3157 14.8558 48.2197 15.0118C48.1478 15.1198 48.1118 15.2997 48.1118 15.5277C48.1118 15.8156 48.1598 16.0196 48.2437 16.1276C48.3277 16.2356 48.4597 16.2956 48.6157 16.2956C48.7717 16.2956 48.8916 16.2476 48.9636 16.1636C49.0596 16.0556 49.1196 15.9356 49.1556 15.7677Z" fill="#225E63"/>
<path id="Vector_2" d="M50.1636 15.5277C50.1636 15.0958 50.2836 14.7598 50.5235 14.5199C50.7635 14.2799 51.0994 14.1599 51.5313 14.1599C51.9753 14.1599 52.3112 14.2799 52.5512 14.5079C52.7911 14.7478 52.9111 15.0718 52.9111 15.5037C52.9111 15.8156 52.8631 16.0676 52.7551 16.2596C52.6472 16.4515 52.5032 16.6075 52.2992 16.7155C52.1073 16.8235 51.8553 16.8835 51.5673 16.8835C51.2674 16.8835 51.0274 16.8355 50.8235 16.7395C50.6315 16.6435 50.4755 16.4995 50.3435 16.2836C50.2116 16.0676 50.1636 15.8396 50.1636 15.5277ZM50.9794 15.5277C50.9794 15.7916 51.0274 15.9836 51.1234 16.1036C51.2194 16.2236 51.3514 16.2836 51.5313 16.2836C51.7113 16.2836 51.8433 16.2236 51.9393 16.1156C52.0353 15.9956 52.0833 15.7916 52.0833 15.5037C52.0833 15.2517 52.0353 15.0718 51.9273 14.9638C51.8313 14.8438 51.6873 14.7958 51.5194 14.7958C51.3514 14.7958 51.2194 14.8558 51.1234 14.9758C51.0274 15.0718 50.9794 15.2637 50.9794 15.5277Z" fill="#225E63"/>
<path id="Vector_3" d="M53.3311 14.2079H54.3989L54.8069 15.8157L55.2148 14.2079H56.2826V16.8475H55.6107V14.8318L55.0948 16.8475H54.4949L53.979 14.8318V16.8475H53.3071V14.2079H53.3311Z" fill="#225E63"/>
<path id="Vector_4" d="M56.8101 14.2079H58.1658C58.4658 14.2079 58.6817 14.2799 58.8257 14.4239C58.9697 14.5679 59.0417 14.7598 59.0417 15.0238C59.0417 15.2877 58.9577 15.5037 58.8017 15.6477C58.6458 15.8037 58.3938 15.8756 58.0698 15.8756H57.6259V16.8595H56.8101V14.2079ZM57.6259 15.3357H57.8299C57.9859 15.3357 58.0938 15.3117 58.1658 15.2518C58.2258 15.1918 58.2618 15.1318 58.2618 15.0478C58.2618 14.9638 58.2378 14.8918 58.1778 14.8318C58.1178 14.7718 58.0219 14.7478 57.8659 14.7478H57.6379V15.3357H57.6259Z" fill="#225E63"/>
<path id="Vector_5" d="M59.4741 14.2079H60.29V16.1996H61.5618V16.8475H59.4741V14.2079Z" fill="#225E63"/>
<path id="Vector_6" d="M61.9692 14.2079H62.7851V16.8475H61.9692V14.2079Z" fill="#225E63"/>
<path id="Vector_7" d="M64.9931 16.4036H64.0692L63.9372 16.8355H63.1094L64.1052 14.1959H64.9931L65.9889 16.8355H65.137L64.9931 16.4036ZM64.8251 15.8396L64.5371 14.8918L64.2492 15.8396H64.8251Z" fill="#225E63"/>
<path id="Vector_8" d="M66.2412 14.2079H66.9971L67.9929 15.6717V14.2079H68.7608V16.8475H67.9929L67.0091 15.3957V16.8475H66.2412V14.2079Z" fill="#225E63"/>
<path id="Vector_9" d="M69.1201 14.2079H71.6037V14.8558H70.7758V16.8475H69.96V14.8558H69.1321V14.2079H69.1201Z" fill="#225E63"/>
</g>
<g id="Rectangle-3-_x2B_-Letters">
<path id="Rectangle-3" d="M39.3414 18.2273L41.7051 17.4834L40.9372 15.7797C40.3733 16.4876 39.8094 17.3994 39.3414 18.2273ZM38.5376 10.4406L33.9063 0.122295L0 2.04198L9.39443 27.6697L27.4754 21.9707C26.3236 20.3149 25.9037 18.3473 27.2355 17.3874C28.7232 16.3076 30.9668 17.5554 32.3946 19.3191C33.7744 17.0155 37.6497 11.6524 38.5376 10.4406Z" fill="#225E63"/>
<g id="Letters">
<path id="Oval-1" d="M32.8503 7.57902C34.2661 7.57902 35.4179 6.4992 35.4179 5.15543C35.4179 3.81165 34.2661 2.73183 32.8503 2.73183C31.4345 2.73183 30.2827 3.81165 30.2827 5.15543C30.2827 6.4872 31.4345 7.57902 32.8503 7.57902ZM30.7506 8.62285H34.9499V19.601H30.7506V8.62285Z" fill="#FEFEFE"/>
<path id="Path-3" d="M28.6749 11.8263C28.7109 11.8383 28.7349 11.8263 28.7349 11.7903V9.00679C28.7349 8.97079 28.7109 8.9348 28.6749 8.9108C28.6749 8.9108 28.123 8.55086 26.4432 8.45488C26.3593 8.40689 24.8835 8.39489 24.4876 8.45488C18.3686 8.9468 18.1406 13.3741 18.1406 13.566V14.6458C18.1406 14.7778 18.1406 19.3011 24.4876 19.697C25.1115 19.745 26.3233 19.697 26.4432 19.697C27.907 19.697 28.9148 19.2531 28.9148 19.2531C28.9508 19.2411 28.9748 19.2051 28.9748 19.1691V16.5655C28.9748 16.5295 28.9508 16.5175 28.9268 16.5415C28.9268 16.5415 28.4709 16.9015 26.4792 17.1054C25.9153 17.1654 25.6394 17.1414 25.4354 17.1054C22.6039 16.6255 22.4719 14.5619 22.4719 14.5619C22.4719 14.5259 22.4599 14.4659 22.4599 14.4419V13.65C22.4599 13.614 22.4599 13.554 22.4719 13.53C22.4719 13.53 22.6639 11.3104 25.4354 11.0704H26.4792C27.691 11.2264 28.6749 11.8263 28.6749 11.8263Z" fill="#FEFEFE"/>
<path id="Path-1" d="M6.47852 19.5651C6.47852 19.601 6.50251 19.625 6.53851 19.625H10.6298C10.6658 19.625 10.6898 19.601 10.6898 19.5651V16.3736C10.6898 16.3376 10.7138 16.3136 10.7498 16.3136C10.7498 16.3136 17.2887 16.7815 17.2887 12.4022C17.2887 8.93482 13.1854 8.56288 11.8416 8.62287C11.8176 8.62287 6.53851 8.62287 6.53851 8.62287C6.50251 8.62287 6.47852 8.64687 6.47852 8.68286V19.5651ZM10.6178 13.878V11.0105H11.6257C11.6257 11.0105 13.0774 11.0705 13.1974 12.0663C13.2214 12.1383 13.2214 12.6302 13.1974 12.6542C13.0054 13.818 11.7456 13.878 11.7456 13.878H10.6178Z" fill="#FEFEFE"/>
</g>
<path id="Path-7" d="M32.9707 24.8981C33.3067 24.8981 33.5706 24.8982 34.0025 24.7062C35.4903 23.9263 40.5175 11.6524 45.8206 7.87299C45.8566 7.84899 45.8926 7.813 45.9165 7.77701C45.9525 7.72901 45.9525 7.68102 45.9525 7.68102C45.9525 7.68102 45.9525 7.42906 45.1727 7.42906C40.4575 7.29709 35.5503 17.1954 32.9707 21.1068C32.9347 21.1548 32.7667 21.1068 32.7667 21.1068C32.7667 21.1068 31.039 19.0671 29.5393 18.2873C29.5033 18.2753 29.3353 18.2153 29.1553 18.2273C29.0354 18.2273 28.3395 18.3712 28.0155 18.7072C27.6316 19.1151 27.6436 19.3431 27.6436 19.835C27.6436 19.871 27.6676 20.039 27.7156 20.1229C28.0875 20.7708 29.7552 23.0745 31.135 24.3462C31.339 24.5022 31.6629 24.8981 32.9707 24.8981Z" fill="#2BBC5D"/>
</g>
<g id="Group_3">
<path id="Vector_10" d="M47.2124 4.16564H51.1357C51.9156 4.16564 52.5395 4.27362 53.0074 4.47759C53.4874 4.69355 53.8833 4.9935 54.1832 5.37744C54.4952 5.77337 54.7232 6.2293 54.8551 6.74521C54.9991 7.26112 55.0711 7.81303 55.0711 8.40093C55.0711 9.31278 54.9631 10.0207 54.7591 10.5246C54.5552 11.0285 54.2672 11.4484 53.8953 11.7964C53.5234 12.1323 53.1274 12.3603 52.7075 12.4803C52.1316 12.6362 51.6037 12.7082 51.1357 12.7082H47.2124V4.16564ZM49.852 6.09732V10.7645H50.4999C51.0518 10.7645 51.4477 10.7045 51.6757 10.5846C51.9036 10.4646 52.0956 10.2486 52.2276 9.94868C52.3595 9.64873 52.4315 9.14481 52.4315 8.46092C52.4315 7.54907 52.2876 6.93718 51.9876 6.60123C51.6877 6.26529 51.2077 6.09732 50.5119 6.09732H49.852Z" fill="#225E63"/>
<path id="Vector_11" d="M55.8027 9.88869L58.3223 9.73272C58.3823 10.1406 58.4903 10.4526 58.6583 10.6686C58.9342 11.0165 59.3182 11.1845 59.8221 11.1845C60.194 11.1845 60.494 11.1005 60.6979 10.9205C60.9019 10.7405 61.0099 10.5366 61.0099 10.3086C61.0099 10.0927 60.9139 9.88869 60.7219 9.70872C60.5299 9.52875 60.074 9.37278 59.3661 9.2168C58.2023 8.95285 57.3865 8.6049 56.8826 8.17298C56.3786 7.74105 56.1387 7.18914 56.1387 6.51725C56.1387 6.07333 56.2707 5.6654 56.5226 5.26946C56.7746 4.87353 57.1585 4.57358 57.6744 4.34561C58.1903 4.11765 58.8862 4.00967 59.7741 4.00967C60.8659 4.00967 61.7057 4.21364 62.2697 4.62157C62.8456 5.0295 63.1815 5.67739 63.2895 6.56524L60.7939 6.70922C60.7219 6.32529 60.5899 6.04933 60.374 5.86936C60.158 5.68939 59.8701 5.6054 59.4981 5.6054C59.1862 5.6054 58.9582 5.6654 58.8022 5.79737C58.6463 5.92935 58.5743 6.08533 58.5743 6.27729C58.5743 6.40927 58.6343 6.54125 58.7662 6.64923C58.8862 6.75721 59.1862 6.86519 59.6541 6.96118C60.8059 7.21314 61.6338 7.4651 62.1377 7.71705C62.6416 7.96901 63.0015 8.29296 63.2295 8.66489C63.4575 9.03683 63.5654 9.46876 63.5654 9.93668C63.5654 10.4886 63.4095 10.9925 63.1095 11.4484C62.8096 11.9164 62.3776 12.2643 61.8377 12.5043C61.2978 12.7442 60.6019 12.8642 59.7741 12.8642C58.3223 12.8642 57.3145 12.5882 56.7506 12.0243C56.1987 11.4604 55.8867 10.7525 55.8027 9.88869Z" fill="#225E63"/>
</g>
<g id="Group_4">
<path id="Vector_12" d="M64.2373 9.8887L66.7569 9.73272C66.8169 10.1407 66.9249 10.4526 67.0928 10.6686C67.3688 11.0165 67.7527 11.1845 68.2566 11.1845C68.6286 11.1845 68.9285 11.1005 69.1325 10.9205C69.3365 10.7406 69.4444 10.5366 69.4444 10.3086C69.4444 10.0927 69.3485 9.8887 69.1565 9.70873C68.9645 9.52876 68.5086 9.37278 67.8007 9.21681C66.6369 8.95285 65.821 8.60491 65.3171 8.17298C64.8252 7.74106 64.5732 7.18915 64.5732 6.51726C64.5732 6.07333 64.7052 5.6654 64.9572 5.26947C65.2091 4.87354 65.5931 4.57358 66.109 4.34562C66.6249 4.11766 67.3208 4.00968 68.2086 4.00968C69.3005 4.00968 70.1403 4.21364 70.7042 4.62158C71.2801 5.02951 71.6161 5.6774 71.7241 6.56525L69.2285 6.70923C69.1565 6.32529 69.0245 6.04934 68.8085 5.86937C68.5926 5.6894 68.3046 5.60541 67.9327 5.60541C67.6207 5.60541 67.3928 5.6654 67.2368 5.79738C67.0808 5.92936 67.0088 6.08533 67.0088 6.2773C67.0088 6.40928 67.0688 6.54126 67.2008 6.64924C67.3208 6.75722 67.6207 6.8652 68.0887 6.96118C69.2405 7.21314 70.0683 7.4651 70.5722 7.71706C71.0762 7.96902 71.4361 8.29296 71.6641 8.6649C71.892 9.03684 72 9.46877 72 9.93669C72 10.4886 71.844 10.9925 71.5441 11.4484C71.2441 11.9164 70.8122 12.2643 70.2723 12.5043C69.7324 12.7442 69.0365 12.8642 68.2086 12.8642C66.7569 12.8642 65.749 12.5882 65.1851 12.0243C64.6212 11.4604 64.3093 10.7526 64.2373 9.8887Z" fill="#225E63"/>
</g>
</g>
</g>
</svg>
