<svg width="20" height="20" viewBox="0 0 20 20" fill="none" xmlns="http://www.w3.org/2000/svg">
<g id="Google 1" clip-path="url(#clip0_418_1036)">
<g id="Google">
<path id="Path" d="M4.46429 12.0049L3.76311 14.5893L1.20033 14.6429C0.434429 13.2403 0 11.6356 0 9.93036C0 8.28138 0.40618 6.72637 1.12616 5.35715H1.12671L3.40831 5.77014L4.40779 8.00928C4.1986 8.6114 4.08458 9.25777 4.08458 9.93036C4.08466 10.6603 4.21859 11.3597 4.46429 12.0049Z" fill="#FBBB00"/>
<path id="Path_2" d="M19.8247 8.21429C19.94 8.81774 20.0001 9.44094 20.0001 10.0779C20.0001 10.792 19.9245 11.4887 19.7805 12.1607C19.2917 14.4474 18.0143 16.4441 16.2448 17.8572L16.2443 17.8566L13.379 17.7114L12.9734 15.1966C14.1476 14.5126 15.0652 13.4421 15.5485 12.1607H10.1787V8.21429H15.6269H19.8247Z" fill="#518EF8"/>
<path id="Path_3" d="M16.2495 17.8135L16.25 17.8141C14.5441 19.1817 12.3771 20 10.0181 20C6.22721 20 2.93133 17.8867 1.25 14.7766L4.4759 12.1429C5.31654 14.3806 7.48081 15.9735 10.0181 15.9735C11.1087 15.9735 12.1304 15.6795 13.0072 15.1661L16.2495 17.8135Z" fill="#28B446"/>
<path id="Path_4" d="M16.4286 2.29294L13.2073 4.93447C12.3009 4.367 11.2295 4.03918 10.0817 4.03918C7.48981 4.03918 5.28748 5.71044 4.48983 8.03571L1.25054 5.3794H1.25C2.90489 2.1835 6.23868 0 10.0817 0C12.4943 0 14.7065 0.860825 16.4286 2.29294Z" fill="#F14336"/>
</g>
</g>
<defs>
<clipPath id="clip0_418_1036">
<rect width="20" height="20" fill="white"/>
</clipPath>
</defs>
</svg>
