<svg width="32" height="32" viewBox="0 0 32 32" fill="none" xmlns="http://www.w3.org/2000/svg">
<g id="Mastercard">
<rect id="Rectangle 64" x="0.5" y="6.10001" width="31" height="19" rx="3.5" fill="white" stroke="#D2D2D2"/>
<g id="Group 30">
<path id="Vector" d="M27.2003 15.601C27.199 16.9002 26.8024 18.1682 26.0632 19.2366C25.324 20.3051 24.2772 21.1232 23.0618 21.5825C21.8465 22.0417 20.5202 22.1202 19.2592 21.8076C17.9981 21.495 16.8621 20.8061 16.002 19.8323C17.0345 18.6647 17.6045 17.1597 17.6045 15.601C17.6045 14.0422 17.0345 12.5373 16.002 11.3696C16.8621 10.3959 17.9981 9.70696 19.2592 9.39435C20.5202 9.08175 21.8465 9.16028 23.0618 9.6195C24.2772 10.0787 25.324 10.8969 26.0632 11.9653C26.8024 13.0337 27.199 14.3018 27.2003 15.601Z" fill="#F79E1B"/>
<path id="Vector_2" d="M16.002 19.8325C16.8877 19.8325 17.6057 17.9381 17.6057 15.6012C17.6057 13.2642 16.8877 11.3698 16.002 11.3698C15.1164 11.3698 14.3984 13.2642 14.3984 15.6012C14.3984 17.9381 15.1164 19.8325 16.002 19.8325Z" fill="#FF5F00"/>
<path id="Vector_3" d="M14.3981 15.601C14.4009 17.1594 14.9709 18.6635 16.0017 19.8323C15.142 20.8081 14.0055 21.4989 12.7435 21.8127C11.4815 22.1266 10.1538 22.0486 8.93727 21.5891C7.72069 21.1296 6.67292 20.3105 5.93344 19.2408C5.19396 18.171 4.79785 16.9014 4.79785 15.601C4.79785 14.3005 5.19396 13.0309 5.93344 11.9612C6.67292 10.8914 7.72069 10.0723 8.93727 9.61284C10.1538 9.15338 11.4815 9.07537 12.7435 9.3892C14.0055 9.70303 15.142 10.3938 16.0017 11.3696C14.9709 12.5384 14.4009 14.0425 14.3981 15.601Z" fill="#EB001B"/>
</g>
</g>
</svg>
