<svg width="72" height="28" viewBox="0 0 72 28" fill="none" xmlns="http://www.w3.org/2000/svg">
<g id="norton-antivirus-logo 1" clip-path="url(#clip0_185_2747)">
<path id="Vector" d="M12.0488 3.69234C5.39604 3.69234 0 9.08838 0 15.7412C0 22.394 5.39604 27.7897 12.0488 27.7897C18.7016 27.7897 24.0973 22.3943 24.0973 15.7415C24.0973 9.08874 18.7016 3.6927 12.0488 3.6927V3.69234ZM12.0038 7.47234C16.573 7.47234 20.2723 11.1721 20.2723 15.7412C20.2723 20.3103 16.573 24.0097 12.0038 24.0097C7.43472 24.0097 3.72384 20.3103 3.72384 15.7412C3.72384 11.1721 7.43472 7.47234 12.0038 7.47234Z" fill="#FEB511"/>
<path id="Vector_2" d="M27.6751 6.29118V16.7873H29.7678V9.5085L33.4801 16.7873H35.7413V6.29118H33.6493V12.8385L30.2178 6.29154H28.1251L27.6751 6.29118ZM40.5228 8.89002C39.9966 8.88926 39.4755 8.99233 38.9892 9.19333C38.5029 9.39433 38.0611 9.6893 37.689 10.0613C37.3169 10.4334 37.0219 10.8752 36.8209 11.3614C36.6198 11.8477 36.5167 12.3688 36.5174 12.895C36.5174 15.1108 38.3066 16.9112 40.5228 16.9112C42.739 16.9112 44.539 15.1108 44.539 12.8947C44.539 10.6789 42.7386 8.89002 40.5228 8.89002ZM40.5336 10.8362C41.6676 10.8362 42.5813 11.7614 42.5813 12.8947C42.5813 14.0287 41.6672 14.9423 40.534 14.9423C39.4007 14.9423 38.4751 14.0283 38.4751 12.8947C38.4763 12.349 38.6937 11.8261 39.0795 11.4403C39.4654 11.0545 39.988 10.8373 40.5336 10.8362ZM45.0818 9.05994V16.7873H47.3549V13.6507C47.3549 12.5386 47.5975 11.8809 48.0011 11.4043C48.4198 10.91 48.7877 10.6198 49.9116 10.6051L50.7641 10.6166L50.7756 14.1507C50.7774 14.6914 50.8044 15.1475 50.9257 15.536C51.2047 16.4288 51.8833 16.918 53.1959 16.918C53.7956 16.918 54.3803 16.8377 54.9347 16.6336L54.6622 15.0655C54.4019 15.1652 54.0915 15.2282 53.855 15.2303C53.1883 15.2365 53.0346 14.9449 53.0368 14.2475V10.6166H54.6733L54.6791 9.05958H53.0368L53.0314 6.87186L51.1961 6.86646L50.8037 9.05958H49.7356C49.3943 9.05958 49.1318 9.06246 48.8734 9.12798C47.7789 9.40374 47.3297 10.2087 47.0535 10.7131L46.4117 9.05958L45.0818 9.05994ZM58.944 8.89002C58.4178 8.88931 57.8967 8.99242 57.4105 9.19343C56.9243 9.39445 56.4825 9.68943 56.1104 10.0615C55.7384 10.4335 55.4434 10.8753 55.2424 11.3615C55.0414 11.8478 54.9383 12.3689 54.939 12.895C54.939 15.1108 56.7282 16.9112 58.944 16.9112C61.1598 16.9112 62.9602 15.1108 62.9602 12.8947C62.9602 10.6789 61.1601 8.89002 58.944 8.89002ZM58.9552 10.8362C60.0888 10.8362 61.0028 11.7614 61.0028 12.8947C61.0028 14.0287 60.0888 14.9423 58.9552 14.9423C57.8215 14.9423 56.8963 14.0283 56.8963 12.8947C56.8975 12.349 57.1149 11.826 57.5008 11.4402C57.8868 11.0544 58.4095 10.8372 58.9552 10.8362ZM67.9501 8.89002C66.9104 8.89542 66.0565 9.39582 65.2613 10.2508L64.8224 9.0585H63.4951V16.7873H65.7113V11.4773C65.9381 11.2207 66.4504 10.7455 67.1063 10.7462C67.9393 10.7469 68.2417 11.2826 68.2424 11.8823L68.2539 16.7873H70.5151V11.8147C70.5169 9.88074 69.3919 8.88174 67.9501 8.89002ZM70.7207 9.95562V9.2169H70.5047V9.06354H71.1084V9.2169H70.887V9.95562H70.7207ZM71.2225 9.95562V9.06354H71.4626L71.6225 9.6543L71.7729 9.0639H72.0001V9.95562H71.8737V9.26118L71.6768 9.95562H71.5569L71.3769 9.24858V9.95562H71.2225ZM24.2101 0.947339V1.87002H25.1328V0.94698L24.2101 0.947339ZM24.2101 1.87002H22.5001V2.79234H24.2101V1.87002ZM22.5001 2.79234H21.6451V4.59234H22.5001V2.79234ZM22.5001 4.59234V5.47002H23.3778V4.59234H22.5001ZM23.3778 4.59234H24.3451V3.72618H23.3774L23.3778 4.59234ZM22.5001 5.47002H21.6451V6.37002H20.7563V5.47002H19.3051V6.11082H18.5174V6.8985H19.384V7.77618H18.5063L18.5174 6.8985H17.5724V8.28234H16.6951V9.1485H16.099V10.0262H15.469C14.1139 12.2481 13.0267 14.3008 12.3974 15.8197C10.6705 13.5203 9.86051 12.6923 8.40431 11.8823C7.88375 11.5929 7.42007 11.4583 7.08779 11.6462C6.74255 11.8413 6.64139 12.4576 7.07699 12.9397C9.78059 15.9341 10.267 17.5318 11.2505 19.8135C11.5435 20.4939 12.0965 20.7859 12.7243 20.8035C13.0598 20.8129 13.4717 20.7113 13.7478 20.3873C13.876 20.2372 13.9134 20.0317 14.0178 19.7797C14.8397 17.7982 15.7516 15.8114 17.067 13.9189L17.0778 12.9289H17.7755L17.7643 12.0512H18.5178L18.507 11.0047H19.3843V10.0485H18.4955L18.5066 9.1485H19.3843V10.0485H20.2616V9.13734H20.9482V8.0685H21.7466V7.33734H22.5001V5.47002ZM20.7563 5.47002H21.6451V4.59234H20.7563V5.47002ZM20.7563 4.59234V3.7485H19.8678V4.59234H20.7563Z" fill="black"/>
<path id="Vector_3" d="M22.5 2.79666H23.3759V3.72078H22.5V2.79666ZM25.128 1.87254H26.0759V2.79666H25.128V1.87254ZM25.128 0.00233841H26.0759V0.948418H25.128V0.00233841Z" fill="#FEB511"/>
<path id="Vector_4" d="M28.173 25.0987H27.7554V19.3394H28.4588V21.4684C28.7371 21.1199 29.127 20.8798 29.5583 20.8931C30.7272 20.9291 31.1592 21.971 31.1721 22.9775C31.188 24.1843 30.5245 25.1674 29.4531 25.1786C28.9945 25.1833 28.5949 24.9791 28.3335 24.5961L28.173 25.0987ZM28.4631 24.1879C28.7504 24.4525 28.8059 24.5957 29.3621 24.6008C30.198 24.6083 30.4125 23.6806 30.4107 23.0362C30.4086 22.2237 30.185 21.5278 29.4596 21.5069C29.0028 21.4936 28.691 21.7193 28.4721 21.9663L28.4631 24.1879ZM31.7802 26.5365L31.872 26.0055C32.4624 26.1229 32.8886 25.9954 33.1208 25.3445L31.6581 20.9763H32.3904L33.4236 24.4582L34.3995 20.9763H35.1149L33.6939 25.5015C33.366 26.5462 32.5992 26.7309 31.7802 26.5365ZM37.2684 24.4917L37.6262 23.9974C38.1713 24.3877 38.5817 24.5461 39.252 24.5489C39.977 24.5525 40.44 24.1753 40.436 23.5917C40.4249 21.9526 37.6129 22.8717 37.5647 20.6869C37.5434 19.7293 38.3963 19.2577 39.2189 19.2533C39.8399 19.2501 40.4223 19.3441 40.8187 19.6241L40.5091 20.1807C40.323 19.996 39.653 19.8725 39.2891 19.8697C38.6555 19.865 38.2551 20.1159 38.2368 20.6483C38.1835 22.2151 41.147 21.3529 41.142 23.5751C41.1402 24.6112 40.3665 25.1501 39.2498 25.1599C38.2184 25.1689 37.4513 24.7027 37.2684 24.4917ZM45.8029 25.0933V20.9828H46.2367L46.4055 21.6531C46.7468 21.1988 47.3379 20.8957 47.8355 20.8971C48.4233 20.8989 48.6732 21.3133 48.7488 21.6171C49.1196 21.1851 49.6171 20.8971 50.1207 20.8931C50.9883 20.8859 51.1874 21.5188 51.1874 22.2287V25.0933L50.4836 25.0958V22.4559C50.4836 21.8777 50.4141 21.5026 49.9188 21.5127C49.3698 21.5246 49.0775 21.8857 48.8773 22.0642V25.0958H48.1469V22.3778C48.1469 21.8263 48.0572 21.5069 47.5889 21.517C47.1173 21.5271 46.9794 21.7168 46.5222 22.0793V25.0961L45.8029 25.0933ZM54.6762 24.6033C54.3122 24.9845 53.8442 25.1674 53.4057 25.1635C52.707 25.1566 52.1407 24.7315 52.1436 24.0403C52.1465 23.1968 52.7282 22.9631 53.2268 22.7975C53.7186 22.6341 54.111 22.5776 54.557 22.4998C54.5761 21.7665 54.4209 21.4954 53.8212 21.4915C53.2805 21.4879 52.8168 21.7337 52.617 21.8371L52.3621 21.3669C52.5594 21.2132 53.0558 20.9014 53.8687 20.8942C54.76 20.887 55.2914 21.3874 55.2918 22.3234L55.2929 25.0958H54.8594L54.6762 24.6033ZM54.5628 22.9786C54.12 23.065 53.877 23.1381 53.5296 23.2486C53.0835 23.3901 52.8679 23.6151 52.8733 24.0244C52.8787 24.4535 53.1613 24.6188 53.5134 24.6105C53.9346 24.6008 54.206 24.4629 54.5599 24.1961L54.5628 22.9786ZM62.7337 24.5389L62.841 25.0277C62.594 25.1638 62.2247 25.1545 62.0767 25.1552C61.2084 25.1577 61.0781 24.5947 61.0781 23.9528V21.4882H60.4646V20.9763H61.0781L61.2883 19.8045L61.7912 19.8027V20.9763H62.7164V21.4882H61.7912V23.9902C61.7912 24.6008 62.0457 24.6033 62.2851 24.613C62.5155 24.6227 62.7337 24.5389 62.7337 24.5389ZM66.3071 24.1929L66.6059 24.6195C66.293 24.865 65.942 25.1649 65.1875 25.1674C63.9303 25.171 63.3694 24.2091 63.3745 23.0654C63.3799 21.9256 63.9062 20.9007 65.065 20.8946C66.5058 20.8863 66.7088 22.2777 66.7081 23.2475H64.1366C64.1377 24.0266 64.4545 24.5914 65.1029 24.5975C65.7725 24.6037 66.3071 24.1929 66.3071 24.1929ZM64.1363 22.7547H65.9643C65.9283 22.1092 65.7617 21.4299 65.0715 21.4385C64.3317 21.4475 64.1859 22.1297 64.1363 22.7547ZM70.4535 24.6191C70.1594 24.9043 69.6918 25.1516 69.0881 25.1559C67.9314 25.1645 67.3619 24.2725 67.3619 23.0398C67.3615 21.8122 67.98 20.8953 69.1827 20.8931C69.7159 20.8921 70.0993 21.1048 70.375 21.3287L70.0637 21.8014C69.8901 21.6632 69.5085 21.4709 69.1748 21.4756C68.3562 21.4871 68.1013 22.0901 68.1031 23.0207C68.1049 23.7958 68.2766 24.5792 69.1712 24.5875C69.4373 24.59 69.7587 24.4957 70.1043 24.1958L70.4535 24.6191ZM41.6899 26.5365L41.7813 26.0055C42.3717 26.1229 42.7983 25.9954 43.0305 25.3445L41.5675 20.9763H42.3001L43.3333 24.4582L44.3093 20.9763H45.0246L43.6037 25.5015C43.2757 26.5462 42.5085 26.7309 41.6899 26.5365ZM56.4906 25.0933V20.9828H56.9244L57.0929 21.6531C57.4345 21.1988 58.0739 20.8924 58.6517 20.8971C59.4005 20.9032 59.6935 21.5631 59.6935 22.2572V25.0958H58.9631V22.3778C58.9631 21.8263 58.8731 21.5069 58.4051 21.517C57.9334 21.5271 57.667 21.7168 57.2095 22.0793V25.0961L56.4906 25.0933Z" fill="#999999"/>
</g>
<defs>
<clipPath id="clip0_185_2747">
<rect width="72" height="27.792" fill="white"/>
</clipPath>
</defs>
</svg>
