<svg width="68" height="18" viewBox="0 0 68 18" fill="none" xmlns="http://www.w3.org/2000/svg">
<g id="g12">
<path id="path14" d="M8.24911 0.000601768H2.97825C2.61751 0.000601768 2.31079 0.261878 2.25451 0.616923L0.122722 14.0897C0.0803229 14.3555 0.286919 14.5952 0.557396 14.5952H3.07379C3.43447 14.5952 3.74119 14.3341 3.79747 13.9783L4.37241 10.3446C4.42794 9.98877 4.73541 9.72754 5.09534 9.72754H6.76394C10.236 9.72754 12.2398 8.05275 12.7632 4.7339C12.999 3.28188 12.7732 2.14106 12.0911 1.34208C11.3419 0.464646 10.0132 0.000601768 8.24911 0.000601768ZM8.85722 4.92138C8.56896 6.80668 7.12386 6.80668 5.72656 6.80668H4.9312L5.48918 3.28578C5.52235 3.07294 5.70728 2.91623 5.92311 2.91623H6.28762C7.23943 2.91623 8.13736 2.91623 8.6013 3.45702C8.87801 3.77973 8.9628 4.2591 8.85722 4.92138Z" fill="#283B82"/>
<path id="path16" d="M24.0046 4.86038H21.4806C21.2656 4.86038 21.0799 5.01711 21.0466 5.22993L20.935 5.93364L20.7584 5.67856C20.212 4.888 18.9935 4.62377 17.7773 4.62377C14.9881 4.62377 12.6059 6.72954 12.1419 9.68347C11.9007 11.157 12.2437 12.566 13.0822 13.5485C13.8513 14.452 14.9519 14.8284 16.2614 14.8284C18.5088 14.8284 19.755 13.388 19.755 13.388L19.6425 14.0871C19.6 14.3545 19.8066 14.5941 20.0757 14.5941H22.3491C22.7106 14.5941 23.0158 14.3329 23.0729 13.9773L24.437 5.36588C24.4803 5.10082 24.2744 4.86038 24.0046 4.86038ZM20.4864 9.75724C20.2429 11.1946 19.0983 12.1596 17.6387 12.1596C16.9057 12.1596 16.3199 11.9252 15.9438 11.4812C15.5708 11.0402 15.429 10.4125 15.5477 9.7134C15.775 8.28831 16.9389 7.29194 18.3761 7.29194C19.093 7.29194 19.6756 7.5293 20.0594 7.97712C20.4441 8.42963 20.5965 9.06116 20.4864 9.75724Z" fill="#283B82"/>
<path id="path18" d="M37.4474 4.86047H34.911C34.669 4.86047 34.4416 4.98032 34.3045 5.18087L30.8062 10.3174L29.3234 5.38137C29.2301 5.07248 28.9442 4.86047 28.6205 4.86047H26.1281C25.8251 4.86047 25.6148 5.15545 25.7111 5.43971L28.5049 13.6124L25.8783 17.3085C25.6717 17.5996 25.8798 18 26.2368 18H28.7701C29.0105 18 29.2356 17.8832 29.372 17.6865L37.8081 5.5481C38.01 5.25764 37.8028 4.86047 37.4474 4.86047Z" fill="#283B82"/>
<path id="path20" d="M45.8448 0.000601768H40.5732C40.2133 0.000601768 39.9065 0.261878 39.8502 0.616923L37.7184 14.0897C37.6761 14.3555 37.8826 14.5952 38.1516 14.5952H40.8568C41.108 14.5952 41.3231 14.4125 41.3624 14.1635L41.9673 10.3446C42.0228 9.98877 42.3304 9.72754 42.6903 9.72754H44.3582C47.8309 9.72754 49.834 8.05275 50.3581 4.7339C50.5948 3.28188 50.3674 2.14106 49.6853 1.34208C48.9369 0.464646 47.609 0.000601768 45.8448 0.000601768ZM46.453 4.92138C46.1654 6.80668 44.7205 6.80668 43.3223 6.80668H42.5277L43.0865 3.28578C43.1197 3.07294 43.303 2.91623 43.5196 2.91623H43.8841C44.8353 2.91623 45.7338 2.91623 46.1978 3.45702C46.4745 3.77973 46.5584 4.2591 46.453 4.92138Z" fill="#469BDB"/>
<path id="path22" d="M61.6001 4.86038H59.0776C58.861 4.86038 58.6767 5.01711 58.6444 5.22993L58.5326 5.93364L58.3554 5.67856C57.809 4.888 56.5912 4.62377 55.375 4.62377C52.5857 4.62377 50.2044 6.72954 49.7403 9.68347C49.4999 11.157 49.8413 12.566 50.6799 13.5485C51.4506 14.452 52.5496 14.8284 53.859 14.8284C56.1064 14.8284 57.3526 13.388 57.3526 13.388L57.2401 14.0871C57.1978 14.3545 57.4042 14.5941 57.6749 14.5941H59.9477C60.3075 14.5941 60.6144 14.3329 60.6706 13.9773L62.0356 5.36588C62.077 5.10082 61.8706 4.86038 61.6001 4.86038ZM58.0817 9.75724C57.8397 11.1946 56.6936 12.1596 55.234 12.1596C54.5025 12.1596 53.9153 11.9252 53.5391 11.4812C53.1662 11.0402 53.0259 10.4125 53.1431 9.7134C53.3719 8.28831 54.5342 7.29194 55.9716 7.29194C56.6883 7.29194 57.2709 7.5293 57.6548 7.97712C58.0409 8.42963 58.1935 9.06116 58.0817 9.75724Z" fill="#469BDB"/>
<path id="path24" d="M64.5757 0.370236L62.4123 14.0897C62.37 14.3555 62.5764 14.5952 62.8455 14.5952H65.0203C65.3818 14.5952 65.6886 14.3341 65.7441 13.9783L67.8773 0.506324C67.9198 0.2404 67.7133 -3.71933e-05 67.4443 -3.71933e-05H65.0088C64.7938 0.00060463 64.6088 0.15753 64.5757 0.370236Z" fill="#469BDB"/>
</g>
</svg>
