<svg width="16" height="16" viewBox="0 0 16 16" fill="none" xmlns="http://www.w3.org/2000/svg">
<g id="Trash-Delete">
<path id="Union" fill-rule="evenodd" clip-rule="evenodd" d="M6.64363 1.73334C6.17054 1.73334 5.78831 2.11607 5.78831 2.58662V3.43991H10.2096V2.58662C10.2096 2.11607 9.82736 1.73334 9.35426 1.73334H6.64363ZM11.2096 3.43991V2.58662C11.2096 1.56238 10.3782 0.733337 9.35426 0.733337H6.64363C5.61967 0.733337 4.78831 1.56238 4.78831 2.58662V3.43991H3.25534H1.90002C1.62388 3.43991 1.40002 3.66377 1.40002 3.93991C1.40002 4.21605 1.62388 4.43991 1.90002 4.43991H2.75534V13.4129C2.75534 14.4372 3.5867 15.2662 4.61065 15.2662H11.3872C12.4112 15.2662 13.2425 14.4372 13.2425 13.4129V4.43991H14.0979C14.374 4.43991 14.5979 4.21605 14.5979 3.93991C14.5979 3.66377 14.374 3.43991 14.0979 3.43991H12.7425H11.2096ZM10.7096 4.43991H5.28831H3.75534V13.4129C3.75534 13.8835 4.13757 14.2662 4.61065 14.2662H11.3872C11.8603 14.2662 12.2425 13.8835 12.2425 13.4129V4.43991H10.7096ZM9.35424 6.67286C9.71323 6.67286 10.0042 6.96387 10.0042 7.32286V11.3827C10.0042 11.7417 9.71323 12.0327 9.35424 12.0327C8.99526 12.0327 8.70424 11.7417 8.70424 11.3827V7.32286C8.70424 6.96387 8.99526 6.67286 9.35424 6.67286ZM7.29362 7.32286C7.29362 6.96387 7.0026 6.67286 6.64362 6.67286C6.28463 6.67286 5.99362 6.96387 5.99362 7.32286V11.3827C5.99362 11.7417 6.28463 12.0327 6.64362 12.0327C7.0026 12.0327 7.29362 11.7417 7.29362 11.3827V7.32286Z" fill="black"/>
</g>
</svg>
