<svg width="36" height="23" viewBox="0 0 36 23" fill="none" xmlns="http://www.w3.org/2000/svg">
<g id="Group 34">
<rect id="Rectangle 64" x="0.5" y="1" width="35" height="21.5" rx="3.5" fill="white" stroke="#D2D2D2"/>
<path id="Vector" d="M14.322 6.96684L10.3082 16.5466H7.665L5.72104 8.96899C5.70533 8.78917 5.64295 8.61648 5.53999 8.46782C5.43703 8.31915 5.29702 8.1996 5.13365 8.12086C4.35839 7.75171 3.54141 7.47631 2.7002 7.30053V7.02245H6.89581C7.17348 7.0257 7.44102 7.12664 7.65096 7.30735C7.86089 7.48807 7.99965 7.73687 8.04261 8.00962L9.07753 13.5712L11.6508 7.05026L14.322 6.96684ZM24.5733 13.4182C24.5733 10.9016 21.077 10.7626 21.1049 9.62247C21.1049 9.28878 21.4406 8.91338 22.1539 8.82995C22.9926 8.74552 23.8387 8.88971 24.6013 9.24707L25.0348 7.2171C24.2908 6.9465 23.5055 6.80539 22.7133 6.79999C20.2658 6.79999 18.5177 8.09305 18.5177 9.97007C18.5177 11.3605 19.7484 12.1113 20.6854 12.5701C21.6224 13.0289 21.972 13.3487 21.972 13.7658C21.972 14.4054 21.2028 14.6835 20.4896 14.6974C19.6034 14.7206 18.7263 14.5146 17.9443 14.0995L17.4548 16.199C18.347 16.54 19.296 16.7098 20.2518 16.6995C22.8531 16.6995 24.5453 15.4204 24.5593 13.4182M31.0206 16.5466H33.3002L31.3143 6.96684H29.2165C28.9885 6.9666 28.7656 7.03393 28.5762 7.16024C28.3869 7.28654 28.2398 7.46608 28.1536 7.67593L24.4475 16.5466H27.0487L27.5522 15.1562H30.7269L31.0206 16.5466ZM28.2235 13.1541L29.5381 9.56686L30.3213 13.1402L28.2235 13.1541ZM17.8184 6.96684L15.7765 16.5466H13.3431L15.3849 6.96684H17.8184Z" fill="#163AC3"/>
</g>
</svg>
