<svg width="32" height="32" viewBox="0 0 32 32" fill="none" xmlns="http://www.w3.org/2000/svg">
<g id="wire-transfer 1" clip-path="url(#clip0_152_1655)">
<g id="Group">
<rect id="Rectangle 72" x="0.35" y="6.57223" width="31.3" height="18.8556" rx="2.65" fill="white" stroke="#00B5E5" stroke-width="0.7"/>
<g id="Group_2">
<g id="Group_3">
<path id="Vector" d="M3.75712 20.9322V18.0954H2.9248V17.2174H5.60187V18.0954H4.76955V20.9322H3.75712Z" fill="#00AFD8"/>
<path id="Vector_2" d="M6.09668 20.9322V17.2174H7.1548C7.56924 17.2174 7.85805 17.2364 8.0213 17.2745C8.18455 17.3125 8.32543 17.3764 8.4438 17.466C8.57749 17.5675 8.68024 17.6969 8.75212 17.8542C8.82399 18.0116 8.85999 18.185 8.85999 18.3744C8.85999 18.662 8.78937 18.8959 8.64812 19.076C8.5068 19.2562 8.30087 19.3759 8.03018 19.4352L9.04262 20.9322H7.89824L7.04562 19.4782V20.9322L6.09668 20.9322ZM7.04568 18.9734H7.23343C7.45168 18.9734 7.61105 18.9362 7.71174 18.8617C7.81237 18.7873 7.86274 18.6705 7.86274 18.5114C7.86274 18.3253 7.81587 18.193 7.72193 18.1144C7.62812 18.0357 7.4703 17.9964 7.24868 17.9964H7.04568V18.9734Z" fill="#00AFD8"/>
<path id="Vector_3" d="M8.9917 20.9322L10.2731 17.2174H11.5419L12.8258 20.9322H11.8184L11.6306 20.2674H10.1919L9.99907 20.9322H8.9917ZM10.4101 19.5442H11.4175L11.0394 18.3186C11.0276 18.2815 11.0116 18.2214 10.9913 18.1385C10.9709 18.0557 10.9448 17.9491 10.9126 17.8188C10.8906 17.9102 10.8691 17.9973 10.8479 18.0802C10.8268 18.163 10.8052 18.2426 10.7832 18.3186L10.4101 19.5442Z" fill="#00AFD8"/>
<path id="Vector_4" d="M13.1812 20.9322V17.2174H14.158L15.5612 19.1281C15.5883 19.167 15.6328 19.2452 15.6945 19.3628C15.7562 19.4804 15.8243 19.6204 15.8988 19.7828C15.8785 19.6289 15.8637 19.4919 15.8544 19.3717C15.8451 19.2515 15.8404 19.145 15.8404 19.052V17.2174H16.8123V20.9322H15.8404L14.4372 19.014C14.4084 18.975 14.3631 18.8969 14.3015 18.7792C14.2397 18.6617 14.1725 18.5234 14.0997 18.3644C14.12 18.52 14.1348 18.6578 14.1441 18.778C14.1533 18.8981 14.158 19.0047 14.158 19.0977V20.9322H13.1812Z" fill="#00AFD8"/>
<path id="Vector_5" d="M17.7742 19.7321C17.9248 19.903 18.0731 20.0306 18.2195 20.1152C18.3658 20.1999 18.5118 20.2421 18.6573 20.2421C18.7926 20.2421 18.9038 20.2057 18.9909 20.1329C19.0781 20.0602 19.1216 19.968 19.1216 19.8564C19.1216 19.7329 19.0839 19.6377 19.0088 19.571C18.9334 19.5041 18.7629 19.4352 18.4974 19.3641C18.1338 19.2661 17.8765 19.1382 17.726 18.9809C17.5754 18.8236 17.5002 18.608 17.5002 18.3338C17.5002 17.9786 17.619 17.689 17.8568 17.4648C18.0944 17.2407 18.4026 17.1286 18.7816 17.1286C18.9863 17.1286 19.1804 17.1561 19.3639 17.211C19.5475 17.266 19.7213 17.3493 19.8854 17.4609L19.5682 18.1892C19.4532 18.0912 19.3351 18.0171 19.2143 17.9671C19.0933 17.9173 18.9736 17.8923 18.8552 17.8923C18.7334 17.8923 18.6344 17.9216 18.5583 17.9799C18.4822 18.0382 18.4441 18.1131 18.4441 18.2044C18.4441 18.2974 18.4775 18.3719 18.5444 18.4277C18.6113 18.4834 18.7403 18.5368 18.9313 18.5876L18.9769 18.6002C19.3897 18.7119 19.6613 18.8346 19.7915 18.9682C19.8794 19.0596 19.9463 19.1691 19.9919 19.2968C20.0376 19.4246 20.0605 19.5662 20.0605 19.7218C20.0605 20.1161 19.9311 20.4328 19.6722 20.6722C19.4134 20.9115 19.0683 21.0312 18.637 21.0312C18.3782 21.0312 18.1426 20.9872 17.9303 20.8992C17.7179 20.8113 17.5138 20.6734 17.3174 20.4857L17.7742 19.7321Z" fill="#00AFD8"/>
<path id="Vector_6" d="M20.6289 20.9322V17.2174H22.905V18.0319H21.616V18.6764H22.8315V19.4732H21.616V20.9322H20.6289Z" fill="#00AFD8"/>
<path id="Vector_7" d="M23.4556 20.9322V17.2174H25.7317V18.0319H24.4427V18.6764H25.6582V19.4732H24.4427V20.1H25.7317V20.9322L23.4556 20.9322Z" fill="#00AFD8"/>
<path id="Vector_8" d="M26.4014 20.9322V17.2174H27.4596C27.8741 17.2174 28.1628 17.2364 28.3261 17.2745C28.4893 17.3125 28.6302 17.3764 28.7486 17.466C28.8823 17.5675 28.9849 17.6969 29.0569 17.8542C29.1288 18.0116 29.1648 18.185 29.1648 18.3744C29.1648 18.662 29.0941 18.8959 28.9529 19.076C28.8116 19.2562 28.6057 19.3759 28.3351 19.4352L29.3474 20.9322H28.2031L27.3504 19.4782V20.9322L26.4014 20.9322ZM27.3504 18.9734H27.5382C27.7564 18.9734 27.9159 18.9362 28.0164 18.8617C28.1171 18.7873 28.1674 18.6705 28.1674 18.5114C28.1674 18.3253 28.1205 18.193 28.0266 18.1144C27.9328 18.0357 27.775 17.9964 27.5534 17.9964H27.3504V18.9734Z" fill="#00AFD8"/>
</g>
<g id="Group_4">
<path id="Vector_9" d="M14.5361 11.178L15.2104 13.729C15.2423 13.8439 15.2716 13.9636 15.2984 14.0882C15.3253 14.2128 15.3534 14.3557 15.3828 14.517C15.4194 14.3264 15.4506 14.1694 15.4762 14.046C15.5018 13.9226 15.5269 13.8169 15.5513 13.729L16.1817 11.178H17.6589L16.1414 16.5439H14.7854L14.1219 14.2531C14.0974 14.1724 14.0572 14.0149 14.001 13.7803C13.9765 13.6753 13.957 13.5934 13.9424 13.5347C13.9301 13.5861 13.9131 13.6582 13.8911 13.751C13.8349 13.988 13.7921 14.1554 13.7628 14.2531L13.1104 16.5439H11.7506L10.2368 11.178H11.7139L12.3296 13.7436C12.3589 13.8756 12.3877 14.0076 12.4158 14.1395C12.4438 14.2714 12.4701 14.4071 12.4946 14.5463C12.5166 14.4437 12.5403 14.3362 12.5661 14.2237C12.5917 14.1114 12.6302 13.9513 12.6815 13.7436L13.3559 11.1779H14.5361V11.178Z" fill="#006E90"/>
<path id="Vector_10" d="M18.2012 16.5439V11.178H19.6783V16.5439H18.2012Z" fill="#006E90"/>
<path id="Vector_11" d="M20.8584 16.5439V11.178H22.3868C22.9853 11.178 23.4026 11.2054 23.6384 11.2604C23.8742 11.3154 24.0776 11.4077 24.2487 11.5371C24.4417 11.6837 24.5901 11.8707 24.694 12.0979C24.7979 12.3252 24.8498 12.5757 24.8498 12.8493C24.8498 13.2647 24.7478 13.6025 24.5438 13.8627C24.3397 14.123 24.0423 14.2958 23.6513 14.3814L25.1138 16.5439H23.4607L22.2292 14.4437V16.544H20.8584V16.5439ZM22.2292 13.7144H22.5004C22.8156 13.7144 23.0459 13.6606 23.1913 13.5531C23.3367 13.4456 23.4094 13.277 23.4094 13.0473C23.4094 12.7786 23.3416 12.5873 23.206 12.4737C23.0703 12.3601 22.8425 12.3032 22.5223 12.3032H22.2292V13.7144Z" fill="#006E90"/>
<path id="Vector_12" d="M25.6709 16.5439V11.178H28.9586V12.3546H27.0967V13.2856H28.8523V14.4364H27.0967V15.3417H28.9586V16.5439H25.6709Z" fill="#006E90"/>
</g>
<path id="Vector_13" d="M9.66344 11.1387H2.96875V12.2012H9.66344V11.1387Z" fill="url(#paint0_linear_152_1655)"/>
<path id="Vector_14" d="M9.66344 13.2011H2.96875V14.2636H9.66344V13.2011Z" fill="url(#paint1_linear_152_1655)"/>
<path id="Vector_15" d="M9.66344 15.4511H2.96875V16.5136H9.66344V15.4511Z" fill="url(#paint2_linear_152_1655)"/>
</g>
</g>
</g>
<defs>
<linearGradient id="paint0_linear_152_1655" x1="2.96874" y1="11.67" x2="9.66344" y2="11.67" gradientUnits="userSpaceOnUse">
<stop stop-color="#41E700" stop-opacity="0"/>
<stop offset="0.7362" stop-color="#3ACD00"/>
<stop offset="0.7811" stop-color="#36BE00"/>
<stop offset="0.9265" stop-color="#299100"/>
<stop offset="1" stop-color="#248000"/>
</linearGradient>
<linearGradient id="paint1_linear_152_1655" x1="2.96874" y1="13.7324" x2="9.66344" y2="13.7324" gradientUnits="userSpaceOnUse">
<stop stop-color="#41E700" stop-opacity="0"/>
<stop offset="0.7362" stop-color="#3ACD00"/>
<stop offset="0.7811" stop-color="#36BE00"/>
<stop offset="0.9265" stop-color="#299100"/>
<stop offset="1" stop-color="#248000"/>
</linearGradient>
<linearGradient id="paint2_linear_152_1655" x1="2.96874" y1="15.9823" x2="9.66344" y2="15.9823" gradientUnits="userSpaceOnUse">
<stop stop-color="#41E700" stop-opacity="0"/>
<stop offset="0.7362" stop-color="#3ACD00"/>
<stop offset="0.7811" stop-color="#36BE00"/>
<stop offset="0.9265" stop-color="#299100"/>
<stop offset="1" stop-color="#248000"/>
</linearGradient>
<clipPath id="clip0_152_1655">
<rect width="32" height="32" fill="white"/>
</clipPath>
</defs>
</svg>
